<svg xmlns="http://www.w3.org/2000/svg" width="54" height="54" fill="none"><rect width="54" height="54" fill="#F0F5F2" rx="27"/><path stroke="#0D1714" stroke-linecap="round" stroke-linejoin="round" stroke-width="2" d="m27 36-.1-.15c-.695-1.042-1.042-1.563-1.5-1.94a3.999 3.999 0 0 0-1.378-.737C23.453 33 22.827 33 21.575 33H20.2c-1.12 0-1.68 0-2.108-.218a2 2 0 0 1-.874-.874C17 31.48 17 30.92 17 29.8v-8.6c0-1.12 0-1.68.218-2.108a2 2 0 0 1 .874-.874C18.52 18 19.08 18 20.2 18h.4c2.24 0 3.36 0 4.216.436a4 4 0 0 1 1.748 1.748C27 21.04 27 22.16 27 24.4M27 36V24.4M27 36l.1-.15c.695-1.042 1.042-1.563 1.5-1.94a3.999 3.999 0 0 1 1.378-.737C30.547 33 31.173 33 32.425 33H33.8c1.12 0 1.68 0 2.108-.218a2 2 0 0 0 .874-.874C37 31.48 37 30.92 37 29.8v-8.6c0-1.12 0-1.68-.218-2.108a2 2 0 0 0-.874-.874C35.48 18 34.92 18 33.8 18h-.4c-2.24 0-3.36 0-4.216.436a4 4 0 0 0-1.748 1.748C27 21.04 27 22.16 27 24.4"/></svg>