<svg xmlns="http://www.w3.org/2000/svg" width="54" height="54" fill="none"><rect width="54" height="54" fill="#F0F5F2" rx="27"/><path stroke="#0D1714" stroke-linecap="round" stroke-linejoin="round" stroke-width="2" d="M32 29.5v-3.006c0-.18 0-.27-.027-.348a.5.5 0 0 0-.116-.187c-.058-.06-.139-.1-.3-.18L27 23.498m-8 1v6.807c0 .372 0 .558.058.72a1 1 0 0 0 .244.382c.124.12.293.198.631.353l6.4 2.933c.246.112.368.169.496.19.113.02.229.02.342 0 .128-.021.25-.078.496-.19l6.4-2.933c.338-.155.507-.233.63-.353a1 1 0 0 0 .245-.381c.058-.163.058-.349.058-.72V24.5m-18-1 9.642-4.822c.131-.065.197-.098.266-.11a.497.497 0 0 1 .184 0c.069.012.135.045.266.11L37 23.5l-9.642 4.82c-.131.066-.197.1-.266.112a.501.501 0 0 1-.184 0c-.069-.013-.135-.046-.266-.111L17 23.5Z"/></svg>